<mxfile host="65bd71144e">
    <diagram id="hYXol8-PCWV5v1SXksbt" name="Page-1">
        <mxGraphModel dx="772" dy="1164" grid="1" gridSize="10" guides="1" tooltips="1" connect="1" arrows="1" fold="1" page="1" pageScale="1" pageWidth="1100" pageHeight="850" math="0" shadow="0">
            <root>
                <mxCell id="0"/>
                <mxCell id="1" parent="0"/>
                <mxCell id="2" style="edgeStyle=none;html=1;entryX=0;entryY=0.5;entryDx=0;entryDy=0;" edge="1" parent="1" target="6">
                    <mxGeometry relative="1" as="geometry">
                        <mxPoint x="100" y="160" as="sourcePoint"/>
                        <Array as="points">
                            <mxPoint x="130" y="160"/>
                            <mxPoint x="130" y="70"/>
                        </Array>
                    </mxGeometry>
                </mxCell>
                <mxCell id="3" style="edgeStyle=none;html=1;entryX=0.004;entryY=0.589;entryDx=0;entryDy=0;entryPerimeter=0;exitX=1;exitY=0.75;exitDx=0;exitDy=0;exitPerimeter=0;" edge="1" parent="1" source="5" target="9">
                    <mxGeometry relative="1" as="geometry">
                        <Array as="points">
                            <mxPoint x="130" y="200"/>
                            <mxPoint x="130" y="359"/>
                        </Array>
                    </mxGeometry>
                </mxCell>
                <mxCell id="4" style="edgeStyle=none;html=1;" edge="1" parent="1" source="5">
                    <mxGeometry relative="1" as="geometry">
                        <mxPoint x="240" y="180" as="targetPoint"/>
                    </mxGeometry>
                </mxCell>
                <mxCell id="5" value="" style="sketch=0;points=[[0,0,0],[0.25,0,0],[0.5,0,0],[0.75,0,0],[1,0,0],[0,1,0],[0.25,1,0],[0.5,1,0],[0.75,1,0],[1,1,0],[0,0.25,0],[0,0.5,0],[0,0.75,0],[1,0.25,0],[1,0.5,0],[1,0.75,0]];outlineConnect=0;fontColor=#232F3E;gradientColor=#4AB29A;gradientDirection=north;fillColor=#116D5B;strokeColor=#ffffff;dashed=0;verticalLabelPosition=bottom;verticalAlign=top;align=center;html=1;fontSize=12;fontStyle=0;aspect=fixed;shape=mxgraph.aws4.resourceIcon;resIcon=mxgraph.aws4.desktop_and_app_streaming;" vertex="1" parent="1">
                    <mxGeometry x="20" y="140" width="80" height="80" as="geometry"/>
                </mxCell>
                <mxCell id="6" value="Identity Provider" style="aspect=fixed;perimeter=ellipsePerimeter;html=1;align=center;shadow=0;dashed=0;fontColor=#4277BB;labelBackgroundColor=#ffffff;fontSize=12;spacingTop=3;image;image=img/lib/ibm/security/identity_provider.svg;" vertex="1" parent="1">
                    <mxGeometry x="150" y="40" width="60" height="60" as="geometry"/>
                </mxCell>
                <mxCell id="15" value="" style="rounded=1;whiteSpace=wrap;html=1;" vertex="1" parent="1">
                    <mxGeometry x="490" y="280" width="321" height="140" as="geometry"/>
                </mxCell>
                <mxCell id="16" value="" style="shape=image;verticalLabelPosition=bottom;labelBackgroundColor=default;verticalAlign=top;aspect=fixed;imageAspect=0;image=data:image/png,iVBORw0KGgoAAAANSUhEUgAAADcAAABgCAYAAAC5UOoJAAAWOklEQVR4nO2beXxU5bnHv2f2zCSZ7CEmgUTWGwQ0EhEiElksKCK2dsGq7b1gWdpL1XKLcG8QbPkUvFdcqkRRtGob1ICCooEKogYQWQJhSSAhEEgIWSfL7DPnnPf+MTgyZiHgSj/8/przbuf5nXf7Pc/7jiSEEPyLQvN9G/Bt4gq5yxX/0uR0FyoghEAV8Hm1m7cP2ylt8OH0qfSN1XNzupmpGRFEmjRIgCRJ34HJPYfU1WophMDmUnin1MHTO2wcrvehlSDcoEGrAZdf4JEFUSYN/zHcyq8yrWQkGtFpfjgEuyRnc8n84YMG1h6yo6gwaaCFG3uHkWrVo9dKNLtkDtZ5ef+og1MtMtddZeTPE+KZMMDygyHYKTmPX2Xq6zVsqXQxINbAU5MTyEoNI8KoCRouhMDtF9TZZf7nw0beKLGTHqPj3ftTGJxo+s6JdIYOC4qsCv7ycTObK1wMijfwyt1JjO9nockps7ncwfFmH7IqkCQJs0HD1bEG/vbTq/jPUVFUt8r88o1a3H71++DSAR3IHan3svawHY0EuWNjuSHVRHGth5teOM3kV88w6ZVq/rqzhdOt/mAdg1bioZtiuDndTEmdj1W7W79TEl0hhJwqBLtOuzlh8zMmPYypGRFIksSmcieNDoXeVh02l8L8wgb+fe1Z3iuz41MCvdQ7Ss/PhkRg1ku8vr8Nh1f5XgidjxByLp/gwFkPHlkw84ZojDpNMF0jwc+GRrLh/hT6ROv5qNLFz9fU8l8fNCCrAo0kMb6fhXCDhrPtMqUNvu+F0PkIIedTBI2OQE/cnB7WobBWAzelmSmZm8Z/3xJLnFnLX3e28sC6swCkx+iJNGnwKoJ6h/wdmN89QsgpQuA9N8wijV2LF7NBywNZVrJSTGgk+LzaAwQ28XC9BlWAV/7+nY0QBnqNFCR16rwF46v4sMLJL9bUsqnciVYDD4+OBgJbiM2joNNIWE3fv7ILsSBML9EnSg/A2sN2glvguT25wSHzu3frmPRKNXvPeBgYb+DD6anMyAqQK6714PCqmPUSfaL13x2LLhCiLY06DdenmIg1a1i9t40HbogiKUJPqlWHIuDv+9tRVLg6Rs8vhkUyc0QUKdYACY+ssvGoA7tX5aY0M31jDN8LofPRQThn9zEzJNHIxyfdrCiysXh8PFMzIthxys2hOi+jeodxX2YkN6SEodN+qVY+P+2m4KAdVQSGqfYHIME6yC8hBJvLnUz6Ww2RRg2Lx8cy58ZoFAF+RWDUShh1UogHcMLmZcprZyit9zE3O5onbkv4YZL7Ait32Vj0YRN2r8q0YZE8OCqGhAgtZr0GnVbCKwtsLpkPjjl5bGsTTp9g8r+Fs/onvbCatEDgQ/kU0Eig01y8SySEQFZBAPpLqN+ty/OPA+2s2G6j5KyXSKOGYUlGUqP0WPQamlwyJWe9nLT5iTBq+PX1Vn6fHU2fKD0eWbDzlJviWg8NDgWdBlKsOkb2DiMzueP++VX4FMGeajd7zniot8sIIN6iJSvFRFZKGGH6nq3EXZKDwDCstPlYf8TOmhI7h+u9qOeVTgzXMmmghenXWxmSZMJq0mJzyTy4sZ5tlW7OOmTObZuYdBIpVh3ThkXyyJhYzIbODWxyyvzfpzbeOmTnTLsf3zkVp5UgNUrHTwZH8t9jY4kO0349cufD6VOZ+249L+9rY/7N0UwfHkVqlB7Tua8ohKDJqfCjV6rZX+sl2qThjn8LZ1w/C3avyjtH2tle5UFWBb8bGcVfJiZ06AGfrDL3vXpW7W5Dq4HbB1qYNDAcjSSxucLBxjIHXgV+eW0kr/406cLzWvQQTp8i5qw/K3ikTIx9sUq0ueWQfLtXFr/dcFZoF5aJrGdPiu0nnUJR1GC+T1bF68WtImlphYhecky8UdImFFUNaeOl3S1Cu6BMXPNkpfhnuaODDVuPO8Swp08I6ZEysfSjxpD2O8MlyYiPT7h5/JNmbK4vlX9pvY9/ljux6DU8OyWR7DQzmnNftt4h87d9rWSlmFj6ozgcXpXX97eFSLQ2j8KjW5qIDtPySE4sY/uag3ntHoVnP2vBKwsW5sQSY9bw/OetnGjpWkVBDwJEncGkk3hiewufVXv4daaV/nEGPqp0csLm5+dDI8lKMaGeN9of2ljPu6UOFt4SxwM3WLk2ycTHJ1wUHLJj1gc+QGmDjzPtMjelhZGTbuaL2navyoJNjbxS3EZOupl//DyJ3lY9x5p87Kl20y+2a7FwSeQKfpnM/37aTPEZDx+fcIUsMtenmDja6OO2V6q59zorpQ1e3il1cE2igakZFkw6ibQYHXvOePhVwdkObceZtdhcCqPyTjE8xUSfKD2r97YRppf41fVWos06BsYbKG300eTq3me8JHKpVj3v3p/CluMudp12Y3MpHGvyUVTlpskpo5HAqJP487ZmADKvMrLi9gQGxRux+1Ts3oB/+POhEejPqZzadpktx114ZYFPEcRZtLx9xAFAerSe5ZPi+emQSBRV0OJWkQCjtvsF5ZLIAUQYtdw1OIK7BkfgkwWF5Q4O1Z1l/RE7C3JiWT4pgXkfNKDXSKy8sxfDU0xoNBL1dpl9ZzxcHaPnqcmJhJ/zQk40+xj6dBVVrX4E8PzUXsxaX4fDp7JsYgJTM8IBONboo7zJh0Er0T+ue/16yeTOh0EncV2SiWuTApr08U9tPDY+jvF9LRj1ElopoC5UIXjo/XoanQrTh1uJDtMGe25wopFx/cxsPe7izYPtPDYhnl1z0pAVgUkfkHtuv8pLe1o53ern2quM3JRm7taub4QcBDbY6cOtHK738uR2G35F8NMhESSE65AVQXWbzFPbbRQec3FDiolp10YGiUGA/HN3JnLbKzU8taMFh0/wH8OtxFt0SECTS+Hv+9t44fNWkiJ05E3tFVL/WyUnSRI/GxqJRxH86aNm/u9TGwUH7aTHBORYRZOPRqdCVoqJv0yMY3CCsUMb/WINPH1HArn/bOKFz1vZUGqnX6wBSYKTNj81bTJDehn404R4slIuLOO+MXIABp2GX18fRVZKGKt2t/LmQTtbK11IQN9YPX8YHcO0YZEkW3VoOhHBGkniR/3DGRhnZPXeVvJL2imqcgOQEK7l4dEBZXShuRbEpSiUg2c9Pa0mWl2ycHrlCxfsAnaPLFw+Wahq92qkM/S45wKnOIHffqX7iLIqBA0OhYpmH20eFZ0msH8NijcQbryw4IXAWUVFsx+bS0EIiArT0D/OQLyl54Ot5+QksJwTujVtMpnJXZddc6Cdvx9o42ijH7tXRauBmDAtw3oZmTMyipvTLV3W9SuCLcedvPB5K2WNXlrcKgKwGjVck2hkRlYUtw6wYLjAYnJR5PSagMsiAR8cczAlI6JDGVUI5hc28tedLXgVQYxZQ2aSiVaPQmm9j2ONPrZWOnlmSiLThlk7rf9GSTsPv99Ak0vBqJW4PtkISOw946bS5mfbCRd/nZLA/ZlR3xw5rUZiSC8jqVE6Xi1u53cjoxmcaAx6x35F8NKeVlbuasFq0vD77Gjm3BhNVJgWIQQnbX4e29rEG4fsLNnSRFq0nhtTw0K86wO1Hh58vx5Vhd+PiiJ3bByx54ah3aOw/NNm8na1MvOdepKtesb17XoEwEUeG193lYlxfS14ZcGD7zdwqM4bFMgnW/y8VtyGRxY8NiGO/7o5lqhzDqUkSVwda2Dl1F7MGG6lvMnPP/a341e+FKV+RfDgxgbcfsHcUdEsm5gQJAYQYdKyICeO32fHoJFgfmEDNlf3Ue2LImc1afmfsbFc08vAJydc3F9wluc+a6G23c/RBi8H67yM7B3GrzKtHG/2cbDOgxACp0/ls1Mu3H6VeaNjSIvWsf6IA895Ls+hOg/bq9wMiDPwsyGRQSf4fFgMGv79eivJkTqONfrYddrTrb0Xvc9dHWNgx8w+THm9hh1Vbua+18Dc9xqC+bf2N3Oq1c+tL5+m0aHw0QO9+eSEi6XbmkmL1vPZnD5kJptYd9iBy6fi8gse2ljPh8edCKC3VUe/uK4DuqlRejISjJxuk6lq7f6w5ZI28QiTlg33pZBf0s77Rx3UtsvUOxTOtMvIaiDA0y/WQK9wQbNLQRZwY+8w7F4FVRDcwAPhQhWbSwme2EqSRHdBLiECHkXg97ckvyJNWmaNiOYXQyOps8tsKneyYHMje2s8LMiJ5Q83xeDyC8b3szC0l4n0KB19Yw34ZMHhei/xFi3hRg1mvYan70jk82o3v15bR51d5nSr3KUT2uRSqLT50WkgObJ787+2/IoK0xIVpsWrCPrF6tly3EnRSRe3Dwq4KJIk0SdaQ++owNK/osjGsUYfd18TgVEroddKDEow0jfWwJKtTRyu97Kt0kl6tL5DAEhVBW8ftnPC5sNq1DCyT/f68hs7ihmcYOQngyOQJHjg7To2Vzhpcav4FIHHr1LvUFi9p5X5mxpJsGiZPtyKUfel8XqtxFOTE5EkeHRLE++W2Wl0ynhkFa+s0uSU2VBqZ9knzcgqLB4fR2J4933T49BeT9DgkFmwqYHX9rcTZdIy5uowBsUb8ciC4jMedp5yE6aXWDQujpk3RHWIXcqKYOnHTTyzowWnT2V8P8u5vRTKGnxsq3Si0UjMuiGKP98aHzyr+E7IATS7FNYcaOPZXS2UN/qDgR6tBNlpYTycHcP4/hYsnQRlhRC0e1XWH7GzYruNg3Whq+GQXgYeyo7hJ9dEEGn6BoOyFwufHDhfL23wYdJJDE82cnWMIRju6wlKGzwcPOtDUQUZCQau60Eo/nx8a+R+CPj+z3a/RVwhd7niCrnLFVfIfRV2u52ysjL8/u6PkL4J1NbWcuzYMS5lx+qSXG1tLfn5+SxdupRly5ZRUFDAqVOnACgrKyM3Nxe73d5pXafTyauvvkpFRUWHvPb2dlauXEl9fX2PDCwoKGDJkiXfDDlFUXjnnXeYMGECu3btwmq1IoRg7dq15OXlAZCRkcGyZcuIjIwEwOv18vTTT1NVVQWAy+UiPz+fysrKDi+02+28+OKLNDY2XrSxF4sQWS2EYNu2bTz55JOsX7+e/v37B/NkWQ72VHh4OCkpKUiShCzLtLa28vzzz5OVlUViYuJFGeDz+ZAkCb0+4H2rqorP58NgMKDRhH57v9+Poiid5nWGkBLt7e2sW7eO2bNnhxAD0Ol0REdHB5/nzp1LWVkZ+/btY+nSpTQ0NJCXl0dubu5FkVu9ejXr1q0LPtfW1rJo0SKampqCaUII9u7dy4svvkhubi6vvfYara0Xvo0b0nMtLS00NzczbNiwC1YsLCzknnvuYdCgQdx+++2899575OTkMHDgwGCZnTt34na7Q+o1NzeHPBcXF5OUlBR8bm9vZ+vWrcyZMyeYduTIEYqKihg2bBi9e/fmpZde4tChQzz++ONotV17ByHkHA4HtbW1GAxfuviLFi1i1apVAAwZMoRnn302hECvXr0wm82YzWauu+46MjMzg/Np8+bNFBcXh7zQ4+k+YtUZrFYrs2bNwmKxIIRgwIABjB49moceeoiUlJSekTMYDERERKAoX541z5w5kx//+MfU1dWxcOFCZLnnN2CXLFnCxIkTQ9LOnDnD5MmTe9wGQGpqKmFhAXdHkiQGDBiA2+2mrKysW3Ihcy4yMpLIyEiqq6uDacnJyVx77bUMHjz4ogy6VAghOiz7X312Op1otVpiYmK6bSuEXExMDFlZWaxYsYKWlpaLNkpVL/7/BBkZGbS3t+P1eoHAnLPZbCFlqqqqQgTDhx9+SGJiYsj06AwdhuWcOXMoLy9n0KBBzJo1i+zsbOrq6tiwYQMWiwWjseOJqE6nIy0tjaKiIlRVJT09vcfkRo8ezcsvv8y6desYOHAgTz31VMi0AKirq+Puu+/m0UcfpaKignnz5pGXl0d4eHi3bWsXL168+PwEvV7PxIkTyczMpLKyks2bN+N2uxk5ciQLFiwgLS0NgEOHDjFu3DgSExPRarX07duXwsJCKisrGTt2LNXV1WRmZnLVVVeFvNDv91NVVUVOTg5RUVHEx8fTv39/1q5dS01NDVOnTsVoNHLLLbcQHh5OQ0MDffv25a677mLNmjWcOnWKRx55hNtuu+2CH+5KmOFyxRVylyuukLtc0Sm5xsZGtm3b1kHkXiyWL1/O/Pnzv1YbXwedklu9ejX3338/+fn5F9XYvn372LlzZ/B5zJgxTJo06etZ+HXw1Vs3jY2NYsyYMeKNN94QEyZMEDabrcc3dubOnSvmz59/0Td9vi2EKBRxzhM/deoUubm5rF27lqSkJPr16xe8UiGEwOFwsHv3bt58802qq6uJi4tj48aN5OfnU11dzenTp/F4PLS3t7NixQpuvfXWYN3m5mY++ugj3nrrLbxeL1FRUZhMJiRJorCwkO3btxMXF0dBQQEHDhwgOTkZs9kc9PpPnDjBW2+9xc6dO4mNje1WPIcMS4/Hw6effsqIESMAyM7OZvv27UFRC1BRUcHMmTNZtWoVZrOZkpIStm3bRmxsLBaLhYiICFJTU4mOjqasrIwnnngiWHfHjh3cc889fPLJJ8TExLBhwwbuvfdejh49CkBRURHPPPMM+fn5+Hw+ioqK+OMf/0hDQ+BCwebNm1m4cCFutxtVVfnss896PiyrqqrEHXfcIfbs2SNUVRXbt28XU6ZMETU1NUIIITwej5g9e7ZYsmSJcDgCV+MVRREul0sIIcT06dPFgw8+GGzv9ddfF1+8wm63i5ycHLF69Wrh8/mEEEL4fD6xePFikZubK7xer1iwYIEYPXq0qK6uFqqqiqqqKjFx4kSxY8cOIYQQ8+bNE0uWLBF+v1+oqioURel2WIb03P79+7FarfTv3z/oFOr1evbv3w9ATU0NxcXFzJgxA4slcHtHo9EEHcnucOzYMSoqKpg2bVowGKTX6xk7diwHDx4MxkTi4uJITk4O/FXbHLgJ+0VeTk4Ob7/9NitXrsTlcl0wSBR0eRRFYdWqVZSWlnLjjTcGCzgcDpxOJ5MmTcLpdOJyuTCZLv5P7na7PRi5CjFAp8Ptdgc9/MBVjS+vbYjznNeJEycSHR3Nc889x5o1a3j44Ye566670Ok6PxsPppaUlFBZWcmaNWtITv7ySl55eTm/+c1vKCkpIT09nT59+lBUVMSdd97ZaYNdOawZGRnExcWxa9cusrOzg+mlpaUMHTr0gl71Fxg1ahQjRoygsLCQJ598klGjRoXY2ym5vLw8RowYQVZWVsiXSEpKYsSIEbzwwgvk5eVx3333MW/ePJqamhg3bhyVlZVoNBpuueUWBg4cyAcffMDx48eDAdsvEBcXx8yZM5k9ezbLly8nIyOD3bt3s3r1apYtW9apE/xVFBQUkJycTFpaGidPniQ+Pj44dDuFEELU1NSIPn36iE2bNnU6MTdu3CjS0tKCC8uePXvE5MmTRUpKipg8ebI4cuSIECKwR86YMUPExsaKlStXivz8fGE2m0Pa2rJlixg7dqxIS0sT9957rygvLw/mLVq0SEybNi343NjYKKZMmSIKCwuDC9TQoUNF7969xW9/+9ugPV3hirN6ueIKucsVV8hdrrhC7nLFFXKXK/6lyf0/VoGCo6GX8ZAAAAAASUVORK5CYII=;" vertex="1" parent="1">
                    <mxGeometry x="626" y="313.5" width="46.7" height="81.5" as="geometry"/>
                </mxCell>
                <mxCell id="17" value="Management Stack" style="text;html=1;strokeColor=none;fillColor=none;align=center;verticalAlign=middle;whiteSpace=wrap;rounded=0;" vertex="1" parent="1">
                    <mxGeometry x="595.5" y="283.5" width="110" height="30" as="geometry"/>
                </mxCell>
                <mxCell id="18" value="" style="rounded=1;whiteSpace=wrap;html=1;" vertex="1" parent="1">
                    <mxGeometry x="240" y="110" width="203" height="150" as="geometry"/>
                </mxCell>
                <mxCell id="19" style="edgeStyle=none;html=1;" edge="1" parent="1">
                    <mxGeometry relative="1" as="geometry">
                        <mxPoint x="313" y="178" as="sourcePoint"/>
                        <mxPoint x="360" y="178" as="targetPoint"/>
                    </mxGeometry>
                </mxCell>
                <mxCell id="20" value="App Layer" style="text;html=1;strokeColor=none;fillColor=none;align=center;verticalAlign=middle;whiteSpace=wrap;rounded=0;" vertex="1" parent="1">
                    <mxGeometry x="313" y="110" width="60" height="30" as="geometry"/>
                </mxCell>
                <mxCell id="21" value="APi Gateway" style="sketch=0;points=[[0,0,0],[0.25,0,0],[0.5,0,0],[0.75,0,0],[1,0,0],[0,1,0],[0.25,1,0],[0.5,1,0],[0.75,1,0],[1,1,0],[0,0.25,0],[0,0.5,0],[0,0.75,0],[1,0.25,0],[1,0.5,0],[1,0.75,0]];outlineConnect=0;fontColor=#232F3E;gradientColor=#FF4F8B;gradientDirection=north;fillColor=#BC1356;strokeColor=#ffffff;dashed=0;verticalLabelPosition=bottom;verticalAlign=top;align=center;html=1;fontSize=12;fontStyle=0;aspect=fixed;shape=mxgraph.aws4.resourceIcon;resIcon=mxgraph.aws4.api_gateway;hachureGap=4;jiggle=2;curveFitting=1;fontFamily=Architects Daughter;fontSource=https%3A%2F%2Ffonts.googleapis.com%2Fcss%3Ffamily%3DArchitects%2BDaughter;" vertex="1" parent="1">
                    <mxGeometry x="252" y="150.5" width="55" height="55" as="geometry"/>
                </mxCell>
                <mxCell id="43" style="edgeStyle=none;html=1;entryX=0.014;entryY=0.462;entryDx=0;entryDy=0;entryPerimeter=0;" edge="1" parent="1" source="24" target="28">
                    <mxGeometry relative="1" as="geometry"/>
                </mxCell>
                <mxCell id="44" style="edgeStyle=none;html=1;entryX=0.395;entryY=0.994;entryDx=0;entryDy=0;entryPerimeter=0;" edge="1" parent="1" source="24" target="32">
                    <mxGeometry relative="1" as="geometry"/>
                </mxCell>
                <mxCell id="24" value="Lambda" style="sketch=0;points=[[0,0,0],[0.25,0,0],[0.5,0,0],[0.75,0,0],[1,0,0],[0,1,0],[0.25,1,0],[0.5,1,0],[0.75,1,0],[1,1,0],[0,0.25,0],[0,0.5,0],[0,0.75,0],[1,0.25,0],[1,0.5,0],[1,0.75,0]];outlineConnect=0;fontColor=#232F3E;gradientColor=#F78E04;gradientDirection=north;fillColor=#D05C17;strokeColor=#ffffff;dashed=0;verticalLabelPosition=bottom;verticalAlign=top;align=center;html=1;fontSize=12;fontStyle=0;aspect=fixed;shape=mxgraph.aws4.resourceIcon;resIcon=mxgraph.aws4.lambda;hachureGap=4;jiggle=2;curveFitting=1;fontFamily=Architects Daughter;fontSource=https%3A%2F%2Ffonts.googleapis.com%2Fcss%3Ffamily%3DArchitects%2BDaughter;" vertex="1" parent="1">
                    <mxGeometry x="359.1" y="150.5" width="56.5" height="56.5" as="geometry"/>
                </mxCell>
                <mxCell id="25" value="Amazon CloudWatch" style="sketch=0;outlineConnect=0;fontColor=#232F3E;gradientColor=none;strokeColor=#ffffff;fillColor=#232F3E;dashed=0;verticalLabelPosition=middle;verticalAlign=bottom;align=center;html=1;whiteSpace=wrap;fontSize=10;fontStyle=1;spacing=3;shape=mxgraph.aws4.productIcon;prIcon=mxgraph.aws4.cloudwatch;hachureGap=4;jiggle=2;curveFitting=1;fontFamily=Architects Daughter;fontSource=https%3A%2F%2Ffonts.googleapis.com%2Fcss%3Ffamily%3DArchitects%2BDaughter;" vertex="1" parent="1">
                    <mxGeometry x="712" y="308" width="80" height="110" as="geometry"/>
                </mxCell>
                <mxCell id="26" value="AWS CodePipeline" style="sketch=0;outlineConnect=0;fontColor=#232F3E;gradientColor=none;strokeColor=#ffffff;fillColor=#232F3E;dashed=0;verticalLabelPosition=middle;verticalAlign=bottom;align=center;html=1;whiteSpace=wrap;fontSize=10;fontStyle=1;spacing=3;shape=mxgraph.aws4.productIcon;prIcon=mxgraph.aws4.codepipeline;hachureGap=4;jiggle=2;curveFitting=1;fontFamily=Architects Daughter;fontSource=https%3A%2F%2Ffonts.googleapis.com%2Fcss%3Ffamily%3DArchitects%2BDaughter;" vertex="1" parent="1">
                    <mxGeometry x="497" y="303" width="80" height="110" as="geometry"/>
                </mxCell>
                <mxCell id="27" value="" style="group" vertex="1" connectable="0" parent="1">
                    <mxGeometry x="618" y="102" width="140" height="162" as="geometry"/>
                </mxCell>
                <mxCell id="28" value="" style="rounded=1;whiteSpace=wrap;html=1;" vertex="1" parent="27">
                    <mxGeometry y="3.620111731843575" width="140" height="158.3798882681564" as="geometry"/>
                </mxCell>
                <mxCell id="29" value="Data Layer" style="text;html=1;strokeColor=none;fillColor=none;align=center;verticalAlign=middle;whiteSpace=wrap;rounded=0;" vertex="1" parent="27">
                    <mxGeometry x="27.769999999999982" width="80" height="27.150837988826815" as="geometry"/>
                </mxCell>
                <mxCell id="30" value="Amazon DynamoDB" style="sketch=0;outlineConnect=0;fontColor=#232F3E;gradientColor=none;strokeColor=#ffffff;fillColor=#232F3E;dashed=0;verticalLabelPosition=middle;verticalAlign=bottom;align=center;html=1;whiteSpace=wrap;fontSize=10;fontStyle=1;spacing=3;shape=mxgraph.aws4.productIcon;prIcon=mxgraph.aws4.dynamodb;hachureGap=4;jiggle=2;curveFitting=1;fontFamily=Architects Daughter;fontSource=https%3A%2F%2Ffonts.googleapis.com%2Fcss%3Ffamily%3DArchitects%2BDaughter;" vertex="1" parent="27">
                    <mxGeometry x="30" y="40.73" width="80" height="110.27" as="geometry"/>
                </mxCell>
                <mxCell id="31" value="" style="group" vertex="1" connectable="0" parent="1">
                    <mxGeometry x="240" y="-55.99999999999999" width="372" height="137.95999999999998" as="geometry"/>
                </mxCell>
                <mxCell id="32" value="" style="rounded=1;whiteSpace=wrap;html=1;" vertex="1" parent="31">
                    <mxGeometry y="5.959999999999994" width="372" height="132" as="geometry"/>
                </mxCell>
                <mxCell id="33" value="" style="shape=image;verticalLabelPosition=bottom;labelBackgroundColor=default;verticalAlign=top;aspect=fixed;imageAspect=0;image=data:image/png,iVBORw0KGgoAAAANSUhEUgAAAL0AAAEACAYAAADm9HcvAAAgAElEQVR4nO2deXxU1fn/3/fOkkkmyWRfgSQkgRBCICA7CAoKVcCKG4pLf6222Kot2lqxrYqt1bp8q7VWbWu/WKvCt1oXLIi7siMEDIQ1IXtC9kwmmUlmuff3xyRjhiSQkElmJrnv1yuvV+bec889M/O5Z855znOeR5BlWUZBYQQhersBCgpDjSJ6hRGHuq2tzdtt8GtskkSByUSr3Uq9uZXm1haMkkRRSzMWi4VyW7uzoCxzvLXFdV2GPhgEAYBRmgACAwNJCQ7FIIqE6oOJDNKjV2tJDQlBKyp904UidHzGoii6/gSLxaKM6c+BQ5axOOyYrO0UtbSQV1NNYYuRo8YmPmsxgsXsLCgIIMtwtkDVmvPfxG5zfy1J39YHEBjEpcEGMg1hpAYbyI6JJSU4mBBtAIEqNaqOL1ahbyiiPwuHLNNst1FgbGJvZTmHaqv5ylhPmcXsLuq+iNnTdD4cHQ/F6MAgLjZEMiU6lpkJo0gzhBGq1igPwXlQRA+02G3kNzawp7KMr2qq2GJshDZLh8AFUKu93cTesdsB2fkg6AK5whDOxTHxzEoYzcTwCIK98XD6OCNW9Cabjb21Z3j39En21tVwxNziHFKofFjgfcVhB1kmKyiYmVExfHfsOGZGxxGiUR4AGGGib7ZZ2V1zhk0Fx/m8tpoz1rbhI/Te6HgA4rQ6LomO5Ya0DGbHxBGq0Xq7ZV5j2IveLksUNBt57dQxXi8uoNraPvyF3hsdD0CsNoDVyWnckj6BtFADamFkWYeGreibrO18Vl7Ki8cOs8NYP3KF3hsdD8A8QyR3TpjEpaPGEKYN8HarhoRhJ/qKZiMbC0+woegkBeZWUKkUsZ8Lhx0cDtKC9HwvZRyrUseTGGrwdqsGlWEj+hJTM38/dZQNBSeos1u9Y1L0d+w2otRavpc2ntvTM0kKCfV2iwYFvxd9UbORv506ymuFJ6iz233bvOgv2O1EqdXckjqeO9IzSRlmPb/fiv50s5F/F57gzaJTnGizKGIfDOx2xusCuTElnetSxzN2mIjf70Rf19bGW0UneenkUU50jtkVBheHg/FBetaMy+TalHFE6XTebtGA8BvRWyWJTypKeOroYfY01oKMIvihxOEAAWaFR/OLzEksTkzyW0c4vxD9SWMTj+Yf5O3S084DoiJ2ryE5ALhmzFgempjDOEOYlxvUf3xa9FZJ4q2SQp45coijLUbF9OhLOOxkBhu4L2sK1yal+lWv77OiP25s5KHDuWwuL3YeUHp336Oj118+KplHJ00lwxDu5Qb1DZ8TvVWS+G/paZ7K/4aDpiZF7P6A5CAnJIxfTJzMlWPG+nyv71OiL2018cyRQ2wqKcQoORTB+xOSA4Oo4oakVO7LmsIYfYi3W9QrPiP6HVXlPHLkEDsb67zdFIUBMjc8ikeypjAvfpS3m9IjPiH6jSfyefL4YY5ZzN232yn4H5LEhMAg7s+YxKrxE73dmm54VfQmq5U/Hj7AK6dPUuNwKIIfTkgSMSoVPxg7jrWTphGi9R3/fa+JvtJs5u7c3WwpK3a6/SqCH35IEsgyV4xO5vmps0kICvJ2iwAviT6voY6fH9zH9vqaob61gpeYHxnD0zkzyI6I8nZThl7026sqePDQPvYbG5XefSQhSVxkCOf3U2YwPz7Rq00ZUtV9VVXOA7l72W9sUAQ/0hBF9hsbeCB3L19VlXu1KUPW028uLmT94QPkt5oU+/tIRnIwUR/Cw5OmsTw51StNGBJnls3FBTxyOJejrS2K4Ec6oor81hYeOXwAkFmenDbkTRh00b9fVMDDhw9w3KwIXqEDUeRoq4mH8vYjy7AiZWiFP6gD6w9Li1h/5CDHza2K4BXcEVUcN5tZf+QgH5YWDe2tB6viTytK+dU3X3O01aRMWhV6pqPH/9U3X/NpRenQ3XYwKt1fV82Dh77uGMMrglc4B6LI0dYWHjz0Nfvrqofmlp6u8GSzkXu+3k2eyagIXqFviCJ5JqduTjYbB/92nqzM2N7OHV/v6PCDVwSv0A9EkYOmJu74egfG9vbBvZUnK7trz5ccrj0DsuTJahVGCrLE4doz3LXny0G9jcdE/3TuHr6qPYNFEGCEBQRV8BCCiEUQ+Kr2DE/n7hm023hEnZuLCnilrIgah10RvMLAEERqHHZeKStic1HBoNxiwAo9Zmzi4fxDFLdZFMEreAZBpLjNwsP5hzhmbPJ49QNSqUVy8NCB3Zy2tCqCV/AsgshpSysPHdiNpSPqgqcYkBvCs7l72VVfQ7vk8A/RSxLBgkB8gH+HpRsutEoOKq1Wp+Gjh5hG7ZKDXfU1PJu7l3UXzfHYfS9Y9B8XF7ChrJgGSfILwYeIIlfEJvDTjEmkhIWjVfIveR2bw0GxqZnXC0/wfNGp7gUEkQZJYkNZMRdFxXCZh5zTLsi1uNpi5vIvPuKkyfPjrcEgVBRZNTqFh6dMJ0Lp5X2ORouZfxac4IFj3/RaZlxIGB8tvJzYwIFvObygLvoPh/ZxxtT4bXJfX0aSSA8K5sqE0YrgfZTwwCAWxCeSrQvsuYAsc8bUyB8O7fPI/fot+p3VlXxQVUGzJLvSvPs6akEkQIlw7L8IAs2SzAdVFeysrhxwdf0SvUVysObAHsrsNsXNQGFoEUXK7DbWHNgzYGtOvyayzx7YS21Ls3NY4ye9fG9UmJr58/HDPFtSqMS5H0okifkRUbx40VxS+5vTSpapbWnm2QN7WTf9wq05fRb9aVMzGypLMA4DwbuQHNDeDoolZ+hwOMBqu7BrBQGjLLOhsoQbTFmMvcBEcH0eozzy9Q5qrdbhI3gABBCH0/vxAwQG9pkLArVWK498veOCq+iT6L8oPc2XjfVYJMV70tvMDwrh1qhYpgQGETCsOqC+Y5Ekvmys54vOzDT95LzDG4vk4PdHD9PocAyzXt4PsVpZPSmda1LH8+e8A5SVFtFu7zJUsNtxJuPyIQYjU7sg0Ohw6nLmqCQC+7n/+ryt+ai0iPwWI7bhNJYfbtjtZOuDuTQxlggfS3XfYrext7GeL40NHhW/TZbJbzHyUWkRV/VzpfacrbBIDtYezetwNVAE76uM0gXy0rxF5ERGe7spPXKiqYEnD+fyRnmx53QkCDRIEmuP5nH5mJR+9fbnHNO/X3gSs8noHyuvIxW7nVtGJzOqt9VMH2B0cCjTY+JB8rCOZBmzycj7hSf7ddk5Rf/AqWMYBUHp5X0ZtZrXyoopb7N4uyW9UtbSzNc1VZ63lAkCRkHggVPH+nVZr8ObzQXHaWs1DYuFqOFOeZuFNTs+5dIoPxjTe9g3HlmmrdXE5oLjLE/L6NMlvYr+mZPHMCmCd0eW0UoS6UF6IlUavjKbvN0iJ2o1ee1t5JUU4rPWm8HKASwImGSZZ04eG5jod5aXcNzUhKOjUgUnWlFkYWQ0Gy/9DuWmFrI3bwSNFhz2bwupvbi6qx6ZyaUdssxxUxM7y0uYOyrpvOV7/JT+UXiCNlFUJrBnkaQP5dlZC7Da7XxQepogQeSKmDhmRccTodNhdTj4qqKEN+qUDCtDiiDQJgj8o/DEhYm+0tzKlupK2pWhzbdIEmN1gbx80SzidIHsqqumsr2Nr1esYmzIt/lSW6xWTjfUg73Cuz3+CKRdkthSXUmluZWEIP05y3YT/QfFhc6FKAUnkkS8Ss39aZnMjolHkmXmxMSxKM6ZQsYuSZS0mPikooTnjh+myGL2juB9cTW2k8FYle0BmyzzQXEhP8zMPme5bi15+FQ+rUoP7yJEreY7sQncljUZAFEQCBRUtDkcbK+u5Lf7d/F1s5fDGNrtrBo1hitHJWPwsd1hbXY7n1RX8tfiwYlh40IQaMWp336JfntZMY72NmeHoQgfgKRgA7/ImdntuCQ5CJJk/u+y5cQFBmGTJI40NfDng/t4o6oMBmI6tNucPWNfvgO7nSVxiTw4eSbpBsOF33MQmRYRRbAA/1NwfHB1Jcs42tvYXlbM/NHJvRZz657+XVlGu+JJ6USWiFer+f7oZJKDQ7qdDtJomTtqDHEdG5U1okhORBR/XnA5T02e4RTu+bDbuv0tCYvgp6kZBPdjiJSuD0av9t2NMHqdjtjgoXkg2yWJf1eWnbOMq6dvaLOwsbIMq5IxxIkgEhts4JrUcT2edkgSZSYTrx3L41BjPWFBQfx08kVkh0Vw07gJ/OLsnf2y7BS2LJOmD2F+WATh+mBidUHUtluQgTmxCSxKHEOASkVEgI6nT+aff61ErebP5cXMG5XEUl0gsgC+0m2pEECW+Lq2ms0VJYOzONUVQcAqqNhYWcYjbRYienHNcIk+v7YaydruunhEI0tEqzWsiEskpocPzi5JFJuaee3UUaL1wczUBfDfsiIWbP0PK8eMpaG1taMeGRx2VBot34uJJyMyhsuSxhKl0RChC0Q4x+f8neQ0Xjh9ApOtD78YDgerdn5Gti4Qg491WmZZory9jWqbdUgms8gykrWd/NrqXoc4rla8W1yAVXIouaE6iA4IZFF8Qo/n1KJImiGM9V2ibv144hT+dOQgv80/5BzPyzIBssTj2TO4LTOLoH5+rmmhocwNDWNrYz1tfbSm5fmw/82QCL4Dq+Tg3eKCXkUvgnNos6OpAUdfJ0/DHRkMGg0zouP6fEmwRsvPJk3lD9nO8bxOlvnDpIu4M2tyvwUPECiqGKsPQSM5lEXC/iAIOFRqdjQ10NBLJyAClFrMnDK3ICkfLkgSESoV887hmy7JMuXmFu7a9Tlh/36VGz/5gKY2C0FqDTeOywBdIAE6HbdMyAJAlmXqLWYONtZjlhzIffyc08IjUCuRGvqNJMucMrdQajH3eF4N8G7hSeySrGySBhBFxoZHcndWTo+nJVkmr7mR2dved5kW3609w57PtpK/9Cp0osiayFgaZQc6QaSqtYW7d33OfzuDFGkDOHHlNYwOCj7nmF5hYNglmXcLTzLlotndzokAx+trkVSqET+0CRIEVsYm8J95i4juZeZfZzHz8uFDTsGrNc7PTFRhaTXxfsFJJBmq7VamhobT5rBz167P+W/tGec4v8N2P37be9RYzOft8QsaG7A7+mjtsNu/dQP3pT9vIAhIKhXH62t7PK1uaLOwzWRkEA1J/oEkkRYcyr0TJ/cqeIAAlZq00LDuu4A61jesssSnrS38eFwWsgxNbW3d3RLMrRyuOcMlSSlOs14PHG5q5LW6akx9jAj9xJQZfCcxCb3GtzwtbZLEjjMVPJN/kOODnECtKw5gm8lIQw+mS3VufS2S3eoMtz3Ce/pgjZak4HMHEDIEBHBreganTU38oyO8dIg2gHvHTWTVuAnUWszQ4vSz14giN4/LZNeBXU7hd5gwl8cmsHBMCqpeBP1lVTk37fyMhr5EoLDbuWNUMteMTmJUiG+uyIaOTqayvZ2H874eOo3JMpLdSm59LYsTx7idUudVVTgnsCNb74BzSqPpgw9NdGAQT86Yz/IxY7HYbcyOS3S5IuQZG5GQOWNrR6tScXP6BGx2Bz89uBshQMf6sRO576LZiL18+WbJwS37d/ZrM34Lsk//UttsNixtPU8qBxNJlsmrqugu+k9rqpCG0Ibqy7TYbBQ1NjAlNv68ZfUaDUvPsgO32qw8n3eAFuAn+YdYlDCacF0gd2RO4uYJEwHOa778uroKm8XS922aajVvlpeQFGJg2ZgUgjXa818zhFisVj4pL+Z/iwsHf0W2K4KApFLzaU0V9551Sr3D3OIzy9bepsVhp6jVxBTOL/quSLJMbbuFJw7uY1tdNajUtJiMLP34A7ZetowIXSBBQt9Mj7vOVPbftVut5oljeTxxjqQGXmWIXIvPRgJ2mFswSw63zkYtW9v77tE3nBFFaq1WdlVXcfXYnv1tumLr8KPfXlnGl+UlbKrpMEmqNYhAcqCePHMLKf/5F49NuojxEZHIskyFqZnbMrJ6Hd78pfT0hbl2j9CtgudElpGt7ZwwNpETHuk6rJZHuti7YLTb2NPUSGlrC2P0wRjb29leXUFdayt6rZYgjZay5ma+aW5gQ1U5WMzf+tF3WGh0oshtY8byx+lzMdqt/D53H7849g2iIHBvchrrps3qdfr0RVU5Nmu7EoHCg8iCwIn62rNE78UG+RyiyKlWE7/a8xXTouN4s+gEeaZmpwA7hxxdRd6Dz7xNkvi6ppqm9jbCdYH8YcY8Hpk+p0+uCL/J3UuLIniPIgPljQ1ux0RJGdq4YZQcvFV3hnVHcslrb3cKW6P9dnFJrTnndkAHcMhsYunHm9leVoxFlggSVS5XhApza4+LUm+dPsnx1mYciiuI5+gyme3K8OjpJYdrcQhZdnfQkuVvz/UVQQT1hW//k4A8cytLt39MWlAwqVodLZKD5Igo7uvBvaHS3MpPvtlPC8KFm45VKuboQ4n0sc0kRpuNE62moXMtPgsZ2G5pdTum9tvxo+RwZrVQq5kUGs6SiCgSgw1E6nToNGpaOvzQ2+x2gjQakkLDvNJMlSCwaEwK3x2bTmKXXfpmyUGgICIIAuv2bnfascULdAVRqfjPnEtYHBuPxsdcw+2yxN7qKn6Xu48vjPVDrzVZhvY2NwuO/0357XYQYFFsAveMm8jMmHgM2v7bpiVZdvq1SDIMgk70ag3/N38xlyaMdh2TZZmTpmaeOXKQZ2bMBZXIswf28F51BbYLFbzdzs/HjmeqIdznBA/OzI5ZkdF8JyWVL3LrQOWdDrarBce/RO9wsCwukQcnTSUnOnZAVcWHhHJzRhbl7W28e6bc4z+9MjK1FjO5DXXUmVspazaysfAEOxrrOLHyZoJVaj6rLOORU0dpH4gLiFrNntpqbrK2E3ueeC/eotFi4XSz0WtevDJQZ24FfxN9pErF2glTuCMjk1APrDqqBYHJEVG8NPdS5pUU8PODnknM24nZbud7e750/rx2cW1YnjCaRH0wJ03NrNz9BVYPhA7Z0VjHQ3t3sCgxCYPOtwK4ttntbK+r5s3KsqFdke2KINDc8m3cUb8QfaRKxS8zsvnB+EyCPBxIyaDVcltKOnq1ljtzdzvnCZ5AEJxWn7PY3FDHC4cPsq7wGJKnIk+o1XxQX8MH9dWeqc/TeGlFtitVVqvrf98XvcPBD8Zncdu4CR4XfCfBag0r4hJoTM/kwfyDg/4F/fLIAc+vgisrsr0iA2e6OLyJPm25cThYFpvAVQmjPTKkORcRgUEsT0rluoQxHSHyBpHOzScKg48ggFrDSWOj65Bv57rXaJg3OompA5y09pVRwSFclZKu9JrDDBk47hdjeoeD5dGxXBweNWS31KlUjA8JZU6IgV0m45Dd12N4MoirKA7bcDC+K3ogOzKWNEP4kN4zXhfIFfGj2NVY7z89fkdKzVVpycTqgjxS5eHmRjafqaCwzTIsxH/K5gcT2bGBgUwMDiZEM7Rhr/XaAFIjhu7XxRNkB4fwyrxFZHm43Zknj/Lk8cMU+HIQqb7SxTXFN8f0DgdJQSHEBgUP+a11KhWjg/Q+naLSDbudK+NHETsIIbonh0eQoQ/2jm19EPFN0QNxQUG9BuAcbCK1AcyLih58K44n6EipWWBp9aiHplWS2F5TzaHmpmExvOmKbw5vZInYoGAidN5JMBCsVpOu7x6e21cpt9u49atPmG8IJ8JDpt0TrS3sbzXRNMx6efBV0QsiEdoAQryUtylAoyUhLMIr975Qyu023qzvkuDNYXe6SHd1czj7WE9lwLkqLTDsevhOfFP0KpVX09loRZFwrRZkH9syr9Xy+2OH2VBwgiPtbbScqxfuaVX57GO9rTwP8/iZPin6aJUagxdFrxZFQi7AXXkoKLXbKO1LlhOFXvFJ0XsblSCgE8SOn3lFYB5FkrqHRBxifFL0cQE6RgXpCfTi4tC44FDemLUAnb8sUPkR4bpAogOG2AW6i6+TT36jkuRA9nLCt6ggPVePy/RqGxQ8R3oXq5ZP2ulrbDZq7VZsvjaRVPBb4rpYAn1S9LWyRK3djt2hiF5h4AhAWJc1H9En8xn5wGRHYZjQkcp0XBfHRZ/s6bHbsNnt2H3xgVTwOI0WM19WVQxadkQBiOvifeqTE1mAM5YWGtosQ+5lqTB0OGSZ0lYTr5w8xjMFxwb1XvFd1l18U/SCSIHRSEVrC0kh584MMhjsqKvhss+3OgO0DjF3pk9g/bQ5HlscW7nrc7YWF3jfeU6jha6+VJIENhvYrM59C4O5L1mWCQ3+1pfKN0WvUlFiNlFtbhnyW9scDoxtZucXMtRennYbMyKi+pQNpa/MCAomN1DvDKvnbc7Ofi6KMAgu0WcjAGO6pCbyzTE9cNpiIb+lpW9p4j1Is7Wd43U9Z6XzR/TaADQC/Y/nOcwYHfzt3gyfjoaQV19NQZdd7ENBVZuFLVXl3tkqKEmotQEezS+boFYT3McMhcMSQQB9sFuodC+6dZ0HlYrNtdV81dVddpBptds51NTo1U3h4YFBvWYpuRC02gBUw9RFuC+IwLKzsi6KgsOOT9rqARwOcmvOcPSsoPqDRVVrCx+VnvbepE8UCVJrPJroMUGnI2ikJtKTZQSHnYtC3YMLeCmkZh9Rqfi/qnI2V5UPuktCq93GzoZa/l1d6dUoCBEajUd7+pGOAIwKd98QJAq+2st34nDwXnEhH1eUDeptCo1NbDh2ZFDvcV4kiQhtgEdFr9JoO+YIPv49DxKCLJMT454tUhS0Ab4dYk6l4qCxgVdPHeObusEZ3582NvLC4Vz2GOsHpf4+MwjfRYhWi3aY74TqFUFA0Aa4WW4AxCvDo3zXbtmJSsX7Zyr488l8Z5xzD1LRauJvp47xz4oS70bWtdv4yZgUAj0s0NQQA2F6/bDd73ouRODK8KhuSe7EiwzhiL48me1EpeJf5SX85uBe8j3U45eajDxz+CDPnjraY1jtIUWSuD4tE90gPHg/GpPK5ED9sItfc05kGdFh56IeIuSJ2fGJfjVx+k9lGT//ehc7yksvuA67LHOg9gxrd37Bi4UnvB47HWs7j2ZNZVJYOOpBMCIvHp3EtUkpxGu0I2qRShQEsuMTux1XT42MRlRr/acXUKn4wljPN7s+48bRKfx4wiRS+xGuo8TUzCsnj/Ja0SnO2NrB2w5tdhu/nTSNu7OmEDCID9/dWTnIwEsnj1Jpsw37iAcIAqJKy9TI6O6nLBaLvGrb+3xgbMBPZP8tkoNRag3XJo7h+tTxjAuPRN/DMMVotXKwvpZ3i0/xXkUpZ7yU3tENaztzDRH8bvYCpkdGoRqiVdOdZyp48HAu++qqe455M0xQAcsMEWxcsqLbOTVARmQ0WxpqcYgDSPjlDUQV5ZLEsyWFPFt0CoNaw7igYMYEBxOo1WG12zhhauabFmNHZIOONDDeErwsOwMsAX+dMZ+b0jJQDbHo5sYl8lFMPO8UneTp/G/Ib20Zfr2+LCNKEhk99PLQ0dMfaqzn0o/ew4Lge6J3OL4NuiSKrrB1DQPJDSVJIEvoNVpCRdGZj0hyDG5upI7VwdXJ6fxx5jz0osqjPjYXQpXFzNpv9vNeWZHvGzL6gywTiMxnl1/FlI6Mgl1RA4wzhJEeFMIRSys+Mc3pCCsXpdEyOTyKy2ITmBoVQ3JYGHGBzh0wb58+xR+O5HK8tbV/K6iSxLggPb+ckM1N6ROwOhzUtJkpamkht+YMH1eUcrzVREW7BRA8tjorCAIrYuL525yFHqnPE8QHBvHqjHnchcy/iguGjVlTFATSA4MZZ+g5YbYaIEhUMS8snGMtRqQLTeI7UDriKmYF6flOXCKXjkpmcmQ04b3ER1mVOp5JEVG8fPwI/ykvpt5mdY5Re/qpliSQHERpNKxMTOKOCZPIiooBQKtSMUofwih9CPNj47krawrNdhsnmxrZVlLIlopSvmntSN0ywNiaTW1tNPhYrHeT3e7Krj4skGVUkoN5YeHd7POdCBaLRQbYXlbM1bs+pxWGVvR2GzEaLcsTxrAqdTxTIqMJ7odFxSZLlDYb2VFZxt7aao4bjdQ5vv0SDSoN40NDmR4Tx+Wjk0kJ7t9OLIvDzsH6OjaczOe1ylKnM5onAsv6yjDSbne2ZbhMaGUZPfDOnEuYPzq5xyIu0Te0WcjY+g6modph47CDKHLbmFTunpDFeEM4ag9YMGyyhMVux+5woBJFdGoNAR74Qu2SRFFzE389cog/lxZ6RvgKg0KIRsvx71zda34Dl+gB7tm7nVeLTmIdSNr2vuCwMy8ylnsnTubi2AT0fhQ6r93hYEfNGX6y+wtK2syK+H0JWUYrS9yWMo4/zZzfazG3LvAH4yeiG2zzlcPOzaNTeGHmPL6TOMavBA8QoFKxKD6Rz5dcxaKIGLC2e7tJCl3QqVT8YPzEc5ZxE/3ksAhEnX7wenmbjVtGp3D/pGluwXf8kXh9MP+74DK+O3osKKGzfQNBQNTpmXyeFfpug931qePRy7Ln7bYOOwti4lkzIZv0XkxJ/kZ0YBDPTp/D9LO2oyl4AVlGL8usTx1/3qLdRL8sORXNYPT0KjW3Z2SR7WfpKs9HWICOddNme7sZCoBGEFiWnHrect1EnxCk54rYBI9YPFzYbNydks6s8EjUvmKq8xABKhVzIqP50ahkZZjjRQJEkStiE0gI0p+3bI/K/unkiwjy5BBHo2FB4hhGBftPxr7+EKTRck36BMWS4y1kmSBZ5qeTL+pT8R5Fnx0WwbzwSLSe6O0ddq6OjiO1D0+gv6IRRSaGhHJ5WHc/D4XBRyuKzAuPJLuPLua9qvonWTmemdBKEnPiE4kfxqIH0KnUrEgYrQxxhpqOCexPsnL6fEmvol8QP4oJIWEDH4NrtIwOMfTo5z6c0KhUZMQmKEOcIUYtCEwICWNB/Kg+X3PO8cvdGVkEi8KAevuZwQZGB+iG3QT2bDSiSNpZu+4VBhlZJlgUuDsjq1+XnVP0S5JSyNQbLlywDjvjgoIwjJDeTysIzAwMOq017NEAABzQSURBVH9BBY+gFgQy9QaWJKX067pzij5QVHHvuAkY4IJ7+6iQUAI1/uVqcKGIosiosAhlXD8UyDIG4N5xEwjs5z6A85pnLk1JY0FkNLoLtOREqDUECMNjc8L5UCGQqh7ecxdfQSeKLIiM5tKUtH5fe14lB4oq1kycgkGl6n9vL0kkhhoIChgZQlAJAvH64W2l8glkGYPKqcv+9vLQx6QM8+MSWR6bgL6/+0c1zpByKo/G4fVdBEEgbKgzYY9A9Co1y2MTmB/XPaZNX+jzmGVt9kVEatT96+1VKucWvhGCIAiotYroBxVZJlKjZm1231Zfe6LPihwbEsqalHGEi2KfhZ8giIRp1EMe5sLrjKAoYkOKLBMuiqxJGcfYASTg65ca12RNIVIf0md/+0i1ioAR1NOLgkC4YrIcPASBSH0Ia7KmDKiafikyUFTx0rRZjFZr+tSb6dUBBKs1qIb5wpTCECBJjFZreGnarAuavHal393w3NgEVqWkX5g1Z5gjChAdEDh8Igv4Ch3WmlUp6cyNTRhwdRf07dyXmU18iMF3wlj4CAICAb6d0Mg/EQTiQwzcl5ntkeouSPSGAB1/yZlJcoBO6e27IAA6b0dBHm7IMskdejN4KNHyBf8Oz46N5/ZRyUSJ4rexJs8iWqO54JVcf0QQhF6jailcALJElChy+6hkZsfGn798HxmQIn+cM51ZkTEE9PRF+0N2EwWfJkBUMSsyhh/nTPdovQMSfaCo4qkZ80gL6SG6gUpNrd1Om2KzVrhA0kLCeGrGvAFba85mwGOP5OAQHps4mbE6Xbdhzh5jPbmN9cMrQOg5sNjtvF10ytvN8H9kibE6HY9NnEzyIOyr9siAe8noZO5Oy3TmNOoqfJWax/IO8MWZcqwDiSfvB1glBzvqqll7OFfZPTUQZIl4jZa70zJZ0ksA1oHisVnmmsxsVsQmYEBwE35lu4V79u3g3yWFmIZpj2+x2/lPcSErvvrY203xb2QJAwIrYhNY4yHzZE+4BXAdKMb2dlbs+IR99bU9nr9tVDJ3Z2Z3RCj2f3u2Q5IoMZl4Lj+XvxYXKD28B5gRGc378xZjGERvVY+KHqC0tYWbdn3Bgca67icdduI0AdySks7NaRmMDQ31SHjuoUaSZWrbLbx68hgPnzoK7W2K4D3AtPAo3pizkDH6wd1r7HHRAxyqruJHX+8ir8XY85K8w5nY4MbEMdyRmkF2ZBR6PxBNm8PBN431bDiRz4aKEue2QD9ot88jSWQHG3h5+hymeNAe3xuDInqAr8qKue/Q1xxpNfXui9Jhy4/RBrAqKZXrUtLJMIT3KxPJYGNx2DnS2MAHxYVsLC2ktDN9jiJ2zyBJZOlDeGbKdC4epInr2Qya6MGZ0ufnh/aR12o6fxIvh92ZYE0bwMWGCK6ISyArOpbxYRHEBgaiGYJhkEOWqWkzs7+mmtNGI5/XV7OtutLZo4uiInRPIznI1ofw9JQZvabKGQwGVfQA7xcV8PDhAxw3t/Q9e11nGs3OhS2NlgnBocwKNTAmOJQwTQBBGjWxwSHEBOkJUamJ0J5/H26L3U6lxUydpZU6ixljWxvNFgtl5hYOtpo40m6BtraOXybPZRZU6AHJQUaQnvWTLmLFBWzuHgiDLnqAzcUFPHI4l6OtLQNzu+2aU7Yz5KAgdOSF7cPb6Ly30BHAqutrb2cQH0lIEpn6YB6ZNJXlyUMreBgi0QN8UlbMr7450PvkVmFk0DFpfWzyNBYP4ZCmK0OmvsWjk/ljznQuCjY4s3MrjDwkBxcFG/hjznSvCR6GsKfvJK+hjnv372ZnQ63S448kJIm5EdH8z0WzvZ6NZshFD3Da1MxPc/fwSXXlUN9awUssjk3guamzBhTFwFN4RfQADe1trD+4jzdLCjF1nVQqDB8kiRBB4MakVB7OmUGEh3Y+DRSviR6gXZJ4Mf8b/nIqnzKrVRH+cEKSGK3V8uP0idw5cbJnc5gNEK+KvpP/nD7JE/mHONxickZFU/BvHA4mBYfwwMQprBw7ztut6YZPiB7gwJlKfnMkl88benBUU/ArLomI4rdZU5kWN/BwHYOBz4ge4IzFzMvH8ni18DhVdruyYORPOOzEq9XclprBjyZkE+fDkd58SvQAVkniv6WneSr/Gw6amvruuqDgPSQHOSFh/GLiZK4cM9YzWSkHEZ8TfSfHjY08dDiXzeXFzgOK+H2PjkXG5aOSeXTSVDIM4V5uUN/wWdGDs9d/q6SQZ44c4miLURnu+BIOO5nBBu7LmsK1Sak+37t3xadF30lhUwN/OXaYN8uKaJQcSq/vTSQH4aKKG0en8OMJk0jtY8JiX8IvRN/J7upKfp9/iE9qqkBGMW8OJQ4HCLA4Jp4HJ05htgcCqXoLvxI9gNFq5YPyYv507Ah5zY2K8IcCh4Ps0HDumZDFslHJGPqwd8GX8TvRd3LGYuatogL+cSqfY62tyoaPwcBuZ4Jez/fTJ3JtSppPmyH7g9+KvpNSo5E3Co7yz+ICitrbFfF7ArudlIAAbk1O46a0TMYYDN5ukUfxe9F3UmJq5s3C4/yr8ASFSkiOC8NuIzVAx82p47kxNYMkH/CIHAyGjeg7qW2z8F5JIX87kU9ec5NzzK+YOnunY0N+dmgYd4yfyFVJqUTrAr3dqkFl2Im+kxabjd01Vbxw/Ajbas8499Yq4v8Whx0EkSXRcfwkI4vZMfE+FXplMBm2ou/ELkucNjbxdsFx/q+ihOMWy8h9ADqEnhEYyPWJSVyTlsFYQ5hfRpkbCMNe9F1ptlk5WF/LhyWn+aiqjKPm1uEfCaEjoFZmkJ7L40ezNGksOZHRhGr82+w4EEaU6Ltistk41FDLp6VFfHqmkv2tJqcvib8/BJ0ZYEQVF+lDWBSXwKIxKUyJiCZkhAxfzseIFX1X2hx2Co1N7CkvY0dtFdub6qmwmP0j6JPdDsggSSQGBjE/LJJ50fHMGjWaVEMYOn9+gAcJRfRn4ZBlWhx2KlpM7K6q4EhjHXvqqjlkanYPEOUNk6i9I76/JIEgMCUklFlRsWSFRzE7PpHE4BCCVWolWfV5UETfByRZxmS3UWQykVdTRXFTI3uNjXzWYgSL2b3w2d6GfXk47Gclqzg7T1dgEJcGG5hpCCc5LJzsmHhSQkIIUWsQFYH3G0X0A8QuSVRaWqlpa6Pe3EqLuRW7JHG4pRmHLFPY3HTeOlJDw1AJApOCQ1GLIsFBeiKD9MTodCQE6lH7kduuP6CIXmHEoXQhCiMORfQKIw5F9AojDkX0CiMORfQKIw5F9AojDkX0CiMORfQKIw5F9AojDkX0CiMORfQKIw5F9AojDkX0CiMORfQKIw5F9AojDr/fQGk2mzGbzT2eU6lUBAYGotP5RipHBd/Ar0Xf2trKM888w+OPP97jeYPBwJQpU1iyZAkrVqwgNTV1iFs49JSWlnLw4EGam5sZN24cmZmZhISEeLtZPsWwHt4YjUa+/PJLHnzwQW699VY++ugjbzdp0Hn33Xe59957+eEPf8jbb7+N0Wj0dpN8jmEt+q7k5uby4osvUlFR4e2mDBpGo5F3332XyspKAIKCglD7cvgSLzHsPpEbbriBJ554gtbWVv7nf/6Hf/zjH65zFRUV5ObmkpiY6HZNdXU17733Hp988glFRUWIosjo0aO54oorWLZsGTExMa6yJpOJt956i6eeeorQ0FCmTJnCCy+8QFlZGX//+9/Ztm0boiiSlJTEjTfeyNVXX40kSezbt4+XX36ZI0eOADBjxgzuvPNOMjMzEXvY+F1VVcXGjRv55JNPqKurw2azkZOTw9VXX83ChQsJDg52K282m3n22Wc5deqU69j//u//snXrVtra2li6dClr1qwhJSXFdf7kyZNs27aNDz/8kDNnzqDRaMjIyGDp0qUsXLiQuLi4gX0ZvorFYpH99a+urk5et26djDMZjwzIN998s1xVVSVbLBZ58+bN8qRJk1zn0tPT5b/+9a+u65uamuQ33nhDNhgMbnV0/UtNTZW3bt3quqampkZ+7rnnXOcjIyPlp556Sh41alS3azUajbx69Wr5iSee6LX+bdu2ySaTye19/eUvfzlnm+bOnSvn5+e7ypeUlMhTp07ttTwgr1q1Sj506JDrmmeeeUYeM2bMOe/R9X0Pp79hPbxpb2/HYrG4Xmu1WvR6vev1Rx99xE033XTOcW9hYSE//elPXT302dTX1/OLX/yC8vLybudsNhuvv/46DzzwQK/1P/3001itVtfrrVu3sm7dunO2aefOndxxxx0UFhYCUFBQ0KsFqydeeuklnn/+eUpLS895j5dffpm8vLw+1+svDDvR22w2WlpayM3NZdOmTRQUFLjOxcTEkJmZCTiHOjt37nSdCw4O5qabbqK0tJSKigoee+wx17n6+nr++9//9npPlUpFdnY2GzduZM2aNT2ev+OOO9i2bRtZWVlu5z7++GOqq6uROgI8/fCHP3QT/NSpU9m0aRNPPvkkUVFRruO7du1i69atNDU1kZmZyd///neWL1/u9lBfffXVvP7667z33nvcddddxMfHU1FRwbZt2yguLnaVW7t2LUVFRRQVFXH77bcTGOiMT//uu+/y8ccf9/q+/ZVhN6bftGkTmzZt6nY8LS2N6667joyMDADKy8vZvn2763x0dDQXX3wxWq0Wh8PB5MmTXedMJhO7d+/utTeNjIzk5ZdfZsqUKcyZM4eXXnrJdU4URWbMmMGf/vQnZFnmj3/8I0uWLHGJvCsHDx7Ebre7HXv66aeZPn06arWasrIyXn31VZqbmwHYt28fK1asYMyYMUybNo3ExES3ievYsWOZNWsWCQnfZgLcv38/NTU1rtdJSUlMnTqVgIAARFFk9uzZ7N69m/z8fABqamqor68nMjKyx/fujww70fdEZmYmDzzwANddd53rWHV1Nbm5ua7XRUVFrFmzpsee2m6309jYSHt7ezdriCAIhIeHM2bMGMDZq2dkZHD8+HHX68svv9xVPjk5udd2VlVVuT0MaWlpREVFuSa68+bN46233nKJ/siRI7S0tPT5cwDnL5zJZHK9Likp4ZZbbum1vNVqpb29vV/38HWG3fCmJxITE8nOzr7g6yVJorW1tcdzarWaxMREAgICAOdD0Pl/5+uwsLA+3cdmc49pGRgYiNAlVqVWq3Wz9Fit1h5/MRTOzbDr6W+44QZuu+02Xn31VdcwZ/fu3bz88sv8/ve/79UlIS4ujmXLlrl67LOJjIwkICAAh8MxaG3XnBU/3mKxIMvfRl08W+RnPwQXQlpaGkuXLiUhIaHb0MputzN58uRu5lF/Z9iJXqPRkJOTQ2NjI9u3b6eyspKWlhY+/fRT3n77bVavXg1AQkKCa/wKEBAQQE5ODt///vfPWX/XoYGniY+PdxNxQUEBpaWlJCUlodVqeeedd7pNckNDe88A2NMvQWJioptbQktLC3PmzOHqq6/udn17ezuCIKD182TJZzPsRN/JvHnzWL16NU899RTgXIjZsGEDmZmZ5OTkMGrUKC6++GKX6EtKSli3bh0ffvghK1asQKVSUV5e7rKQvP32224LO4NBTk4OERERGI1GVw9/44038sgjj1BUVMTWrVvdJtNz5sxxE31QUBCqLhnU//nPfxIUFERUVBQlJSWsXr2ayZMnk5CQ4JrPnDlzhh/84Ads3ryZBQsWoNFoOH78OO+//z45OTn88pe/dE3+hwvDVvQxMTEsXbqUPXv2uKw0O3bs4PHHH+dvf/sbcXFxXHbZZbz//vscO3YMgObmZjZv3szmzZvd6powYcKQtftf//oXV155JY2NjYDzl+W+++7rVm7x4sVccsklbqLPysrCYDDQ0NAAON0S/vCHPwAwa9YsrrvuOiIjI7n11lspLS112eAtFgtvvvkmb775pts9cnJyBuU9epthPZGdPn0611xzjduxgwcP8s9//hOAmTNn8uKLL7JgwYJz1qNSqQgK6j1FfNdxvizL/VooOpucnBxee+01wsPDey1z2WWX8eSTT3abf1xxxRW9ug60t7e72rl8+XJ+85vfuJlle0KlUg14zuCL+H1PP3bsWJYvX45Wq8Vms7kWn8A5vr/88stZv349+/fvR6vVYrfbqays5NSpU6SnpzNz5kw2bdrE7t272bVrF6dPnwacX3hMTAw5OTksWrSI2NhYwGl3j4uL48orr0Sn0yGKopv41Go18+fPJzs7G1mWsdlsREdHu87rdDqWLl2KTqdDEATMZnM3M+iiRYs4deoUW7du5bPPPnOZKFNSUrjkkkuYNWtWjw+hwWBg06ZNbN26ld27d7vmHxkZGSxZsoSJEye6yi5btow5c+awc+dOvvrqK9cCmUqlIj4+nvnz5zN79mwiIiIG+hX5HEpSBoURx/D77VJQOA+K6BVGHIroFUYciugVRhyK6BVGHIroFUYciugVRhyK6BVGHIroFUYciui9zIkTJ7jyyitJTk5m4cKF5OfnD6rPvoIfi76yspJXXnmFyy67jPDwcAIDAzEYDMycOZNHH32UPXv2DKrvu6d49tln2b59O9XV1ezdu5f777/fL9rtz/ilw9mWLVt47LHH3Pa4gnPTRF5eHnl5eTz++ON873vf48UXX/RSKy+MoKAgty2CCp7H70S/b98+/vrXv3YT/Nl0+o/7Or/+9a8JCgqiuLiY2NhY7r//fiXg6iDjV6Jvb29n9+7dHDhwwHVs3Lhx3HHHHVx88cUUFhayY8cOvvjiC1JTU5k+fXq3OhoaGti3bx+HDx+mtraWwMBAEhMTmT17NpMmTXIr29TUxIcffsiBAwfQarVMmzaNlStXYjab+eqrr9i+fbtrO13XiAERERFuGz8cDgfvv/8+u3btQqvVYrVaiY6O5t5772Xv3r1ERkYSGxuL1Wpl9+7dxMbGumLPdNLY2Mi+ffvIy8vDaDTS3t5OQkICU6ZMISsri4iICLddU0ajkf3797N//36Xa3LnFsnx48e7xcfppK2tjRMnTrBnzx4qKyux2+3odDrGjBlDTk4OqampPV7nd3g7xFp//pqamuT77rvPLfzc9ddfLx89etStXE1NjVxZWdktBODGjRvlyZMn9xjGLjQ0VL7tttvk0tJS1zVFRUXyPffc4yqTmZkpHzt2TP7e977nFtbv7LB9YWFhcnl5uVu7Z82a5Vbm4Ycflk0mk7x27VpZq9W6jq9evVo+c+aMW9vffPNNOSYmptcQfMuXL5ePHDniKv/222/LGRkZvZZfvXq1W4i/zvd69913y2FhYb1e9//+3/+TCwoKvK6DERfWLzw8HIPB4Hq9bds2nnzySY4ePeo6FhIS4rbzyGazsW3bNu69916++eabHuttbm5m06ZNrF27ttedTxUVFdxzzz1s2LABcG4oiYmJYeHChUybNs1VTpIkTp486fq/rKyMPXv2uNV15ZVX9rgrKSAgwG1M/84773D33Xe7BWg6m8WLF7uin33xxRc89NBDrrg7PfH666/zpz/9yRUWEODFF19kw4YNNDU19XiNwWAgPT3dLcqav+JXog8ICGDy5Mluu6OMRiMbNmxg8eLFrFmzpsfYi0VFRWzbts0VwjogIICrrrqKY8eOsX37dpYsWQI4f97z8vL49NNPe7y/0Wh0C3PXGQ8nLi6OK664wnXcarWyZcsWV5nOaGGdzJ49mwkTJpx3K15DQwO//OUvqaurczv+4x//mF//+tdMmDABtVrN5MmTMRgMmM1mfve737nd7/rrr+fQoUPk5eW5bYv8xz/+4doU39jYSElJiZvV6NFHH6W2tpa9e/eyfv16br/9dubNm+cW08df8asxPTgFM2vWLNcX1kljYyOvvvoqb775JitXruThhx92RRMrKipyK5+Tk8P9999PcnIyycnJ3HnnnWzbtg1wxq3cs2cPy5cv77UN8fHxPPPMM8THx2OxWIiIiGDevHmu81arlW3btvHb3/4Wh8PBhx9+6Hb9XXfd1ae9px999FG3IFNbtmxh7ty5aLVafvWrX1FTU+P65SsoKHCLeGYwGLjlllsYP348AD/72c9oampy/dqdPn2a2traHmPYv/HGG2g0Gq699lruv//+87bVn/A70ev1eh555BGmTZvGk08+2a1nt1qtbNy4EZPJxOOPP056ejq1tbVucdv37NnD3Llze6zfbDZTUlLS6/3Hjx/Pzp07u03osrKyuOSSS/j888+RJIni4mJOnDhBREQEn332mVvZRYsW9cksmZ+f7xb17PLLLyc9Pd0tDk3X2PmFhYVuojcajed8eJuamjCbzSQlJZGWlkZYWJhreHP8+HHWrVvHunXrWL58OevWrRs20RH8anjTiVar5ZprrmHLli288sorzJgxo1uZr776ildffbXfdTscjl5jN4aEhLBgwYIeLRiBgYHcfPPNbvUcOXKE8vJyV0hsQRC4/fbbCQkJ6ZPo29ra3II1RUVFDVpmkZ/85Cd8//vf7zEE4ebNm7ntttt6DIzrj/hdT9+VyMhIbrrpJpYtW8aHH37Ic88957Lfm0wm6uvre7wuIiKCSZMm9RhRQBTFC4p7GRAQwKxZs1yvbTYbW7dudYtAIAgCt956a58XnzqjLXRiNBr75aJgMBjIzMzsUchms5mxY8e6whyGh4fzm9/8hpUrV/L222/zzjvvuIXz7ozOkJOTw7hx4/rcBl/Er0Tf2trKhg0bKC8v59prryUjIwO9Xk9oaChz585l7969PS5aBQcHExUV5ZoQpqWlsX79embOnOmxtomiSGRkJKtXr+b111/H4XCQm5vbbRLb09pBb4SGhrqJfteuXd2iFJvNZtra2ggJCSEqKsptohkWFsb69euZP3/+ee9lMplQq9VMmzaNadOm8bOf/Yx//etf/P3vf6eoqAhwhu2uqalRRD/UlJWV8dxzz/Hss8+SmJjIxIkTCQkJ4dSpU27je51O51rZHDt2LHPmzOH9998HnKu6P/rRj7j77ruZO3cuFouFEydOsGvXLlpbW3n++efPGdypNwIDA7nuuut4/fXXkSTJFTkNnA/F+vXr+1XfwoULeeGFF1zxKxsbG3nwwQe5/fbbiYqKYv/+/bzxxhtcffXV3HrrrWRnZ7uZc0tKSnjggQdYvXo1M2fORBRFCgsL2b17N6Ghodxwww1kZGTQ2NjI2rVrKSsr47LLLmPGjBkkJCQM2xy8fif6rlRUVPSaLfDiiy92jbHHjRvHpZde6hI9OL0b77rrrm7X9TbB7QtarZapU6f2eE4URVatWtWv+qZPn87cuXPZsmULbW1tgNN602kO7WTFihUIgoDBYOCHP/wh1dXVrqBVubm5Pf76rVy50hWlWK1Wo1ar2bVrF7t27eq1PcnJyYMez3Mo8MuJ7PmYM2cOa9eudY3NdTod1157LQ899NCg31uv1/Poo4+6HRNFkaVLlzJq1Kh+1/f8888zderUc05gbTabK+DrqlWruOeeexg9evQ567Xb7a5Jst1u7xam+2zmzJnDtdde2y0zoz/iVz29Xq/n5z//ORdffDFbt27lo48+cllGYmJiWLBgAStXrmThwoXdJm+RkZGsW7eO66+/nldffZXNmze7Vi31ej2TJk1i8eLFrFy5stehjcPhOK/bb0BAAEuXLnV7wFQqFTfccEOP5dvb291i0J/9OiIigk8//ZStW7eyceNGtmzZ4hrXX3rppVxzzTV897vfdQu/96Mf/YgrrriCjRs38sYbb1BQUOAS9eTJk1mxYgXLli1zjc3Dw8NZs2YNUVFRfPDBB24m20mTJnHLLbdw1VVX9Rq7399QwvopjDiG5fBGQeFcKKJXGHEoolcYcSiiVxhx/H8hHDHcldr1uAAAAABJRU5ErkJggg==;" vertex="1" parent="31">
                    <mxGeometry x="291" y="30" width="61.96" height="83.93" as="geometry"/>
                </mxCell>
                <mxCell id="34" value="Auxiliary Services" style="text;html=1;strokeColor=none;fillColor=none;align=center;verticalAlign=middle;whiteSpace=wrap;rounded=0;" vertex="1" parent="31">
                    <mxGeometry x="130" width="104.4" height="30" as="geometry"/>
                </mxCell>
                <mxCell id="35" value="AWS AI" style="sketch=0;points=[[0,0,0],[0.25,0,0],[0.5,0,0],[0.75,0,0],[1,0,0],[0,1,0],[0.25,1,0],[0.5,1,0],[0.75,1,0],[1,1,0],[0,0.25,0],[0,0.5,0],[0,0.75,0],[1,0.25,0],[1,0.5,0],[1,0.75,0]];outlineConnect=0;fontColor=#232F3E;gradientColor=#4AB29A;gradientDirection=north;fillColor=#116D5B;strokeColor=#ffffff;dashed=0;verticalLabelPosition=bottom;verticalAlign=top;align=center;html=1;fontSize=12;fontStyle=0;aspect=fixed;shape=mxgraph.aws4.resourceIcon;resIcon=mxgraph.aws4.augmented_ai;hachureGap=4;jiggle=2;curveFitting=1;fontFamily=Architects Daughter;fontSource=https%3A%2F%2Ffonts.googleapis.com%2Fcss%3Ffamily%3DArchitects%2BDaughter;" vertex="1" parent="31">
                    <mxGeometry x="193" y="27.959999999999994" width="79" height="79" as="geometry"/>
                </mxCell>
                <mxCell id="36" value="Amazon CloudSearch" style="sketch=0;outlineConnect=0;fontColor=#232F3E;gradientColor=none;strokeColor=#ffffff;fillColor=#232F3E;dashed=0;verticalLabelPosition=middle;verticalAlign=bottom;align=center;html=1;whiteSpace=wrap;fontSize=10;fontStyle=1;spacing=3;shape=mxgraph.aws4.productIcon;prIcon=mxgraph.aws4.cloudsearch;hachureGap=4;jiggle=2;curveFitting=1;fontFamily=Architects Daughter;fontSource=https%3A%2F%2Ffonts.googleapis.com%2Fcss%3Ffamily%3DArchitects%2BDaughter;" vertex="1" parent="31">
                    <mxGeometry x="12" y="21.959999999999994" width="80" height="110" as="geometry"/>
                </mxCell>
                <mxCell id="37" value="SNS" style="sketch=0;points=[[0,0,0],[0.25,0,0],[0.5,0,0],[0.75,0,0],[1,0,0],[0,1,0],[0.25,1,0],[0.5,1,0],[0.75,1,0],[1,1,0],[0,0.25,0],[0,0.5,0],[0,0.75,0],[1,0.25,0],[1,0.5,0],[1,0.75,0]];outlineConnect=0;fontColor=#232F3E;gradientColor=#FF4F8B;gradientDirection=north;fillColor=#BC1356;strokeColor=#ffffff;dashed=0;verticalLabelPosition=bottom;verticalAlign=top;align=center;html=1;fontSize=12;fontStyle=0;aspect=fixed;shape=mxgraph.aws4.resourceIcon;resIcon=mxgraph.aws4.sns;hachureGap=4;jiggle=2;curveFitting=1;fontFamily=Architects Daughter;fontSource=https%3A%2F%2Ffonts.googleapis.com%2Fcss%3Ffamily%3DArchitects%2BDaughter;" vertex="1" parent="31">
                    <mxGeometry x="101" y="27.959999999999994" width="78" height="78" as="geometry"/>
                </mxCell>
                <mxCell id="51" value="" style="group" vertex="1" connectable="0" parent="1">
                    <mxGeometry x="157.5483870967742" y="265.8627777777778" width="316.4516129032258" height="154.13888888888889" as="geometry"/>
                </mxCell>
                <mxCell id="9" value="" style="rounded=1;whiteSpace=wrap;html=1;" vertex="1" parent="51">
                    <mxGeometry y="12.77170138888889" width="316.4516129032258" height="141.3671875" as="geometry"/>
                </mxCell>
                <mxCell id="10" value="Web Content" style="text;html=1;strokeColor=none;fillColor=none;align=center;verticalAlign=middle;whiteSpace=wrap;rounded=0;" vertex="1" parent="51">
                    <mxGeometry x="5.451612903225808" y="3.75" width="116.03225806451611" height="47.12239583333332" as="geometry"/>
                </mxCell>
                <mxCell id="11" value="Website Hosting" style="text;html=1;strokeColor=none;fillColor=none;align=center;verticalAlign=middle;whiteSpace=wrap;rounded=0;" vertex="1" parent="51">
                    <mxGeometry x="173.45161290322574" y="12.769027777777778" width="99.99999999999997" height="29.078194444444446" as="geometry"/>
                </mxCell>
                <mxCell id="12" value="Amazon S3" style="sketch=0;outlineConnect=0;fontColor=#232F3E;gradientColor=none;strokeColor=#ffffff;fillColor=#232F3E;dashed=0;verticalLabelPosition=middle;verticalAlign=bottom;align=center;html=1;whiteSpace=wrap;fontSize=10;fontStyle=1;spacing=3;shape=mxgraph.aws4.productIcon;prIcon=mxgraph.aws4.s3;hachureGap=4;jiggle=2;curveFitting=1;fontFamily=Architects Daughter;fontSource=https%3A%2F%2Ffonts.googleapis.com%2Fcss%3Ffamily%3DArchitects%2BDaughter;" vertex="1" parent="51">
                    <mxGeometry x="182.45161290322574" y="36.5" width="79.99999999999999" height="106.94444444444444" as="geometry"/>
                </mxCell>
                <mxCell id="13" value="Amazon Cloudfront" style="sketch=0;outlineConnect=0;fontColor=#232F3E;gradientColor=none;strokeColor=#ffffff;fillColor=#232F3E;dashed=0;verticalLabelPosition=middle;verticalAlign=bottom;align=center;html=1;whiteSpace=wrap;fontSize=10;fontStyle=1;spacing=3;shape=mxgraph.aws4.productIcon;prIcon=mxgraph.aws4.cloudfront;hachureGap=4;jiggle=2;curveFitting=1;fontFamily=Architects Daughter;fontSource=https%3A%2F%2Ffonts.googleapis.com%2Fcss%3Ffamily%3DArchitects%2BDaughter;" vertex="1" parent="51">
                    <mxGeometry x="23.47" y="36.5" width="80" height="108.85" as="geometry"/>
                </mxCell>
                <mxCell id="50" style="edgeStyle=none;html=1;" edge="1" parent="51" source="12" target="13">
                    <mxGeometry relative="1" as="geometry"/>
                </mxCell>
                <mxCell id="52" value="" style="rounded=1;whiteSpace=wrap;html=1;" vertex="1" parent="1">
                    <mxGeometry x="820" y="-56" width="240" height="476" as="geometry"/>
                </mxCell>
                <mxCell id="53" value="&lt;b&gt;1.Operation Excellence&lt;/b&gt;&lt;br&gt;IAC/Event Based" style="text;html=1;strokeColor=none;fillColor=none;align=center;verticalAlign=middle;whiteSpace=wrap;rounded=0;" vertex="1" parent="1">
                    <mxGeometry x="840" y="-40" width="200" height="30" as="geometry"/>
                </mxCell>
                <mxCell id="54" value="&lt;b&gt;2.Security&lt;/b&gt;&lt;br&gt;Encryption / Auth&amp;nbsp;" style="text;html=1;strokeColor=none;fillColor=none;align=center;verticalAlign=middle;whiteSpace=wrap;rounded=0;" vertex="1" parent="1">
                    <mxGeometry x="840" y="30" width="200" height="30" as="geometry"/>
                </mxCell>
                <mxCell id="55" value="&lt;b&gt;3.Reliability&lt;/b&gt;&lt;br&gt;Loosely Coupled Service&amp;nbsp;" style="text;html=1;strokeColor=none;fillColor=none;align=center;verticalAlign=middle;whiteSpace=wrap;rounded=0;" vertex="1" parent="1">
                    <mxGeometry x="840" y="90" width="200" height="30" as="geometry"/>
                </mxCell>
                <mxCell id="56" value="&lt;b&gt;4.Performance&lt;/b&gt;&lt;br&gt;Serverless Scalability" style="text;html=1;strokeColor=none;fillColor=none;align=center;verticalAlign=middle;whiteSpace=wrap;rounded=0;" vertex="1" parent="1">
                    <mxGeometry x="840" y="175.5" width="200" height="30" as="geometry"/>
                </mxCell>
                <mxCell id="57" value="&lt;b&gt;5.Cost&lt;/b&gt;&lt;br&gt;No Capex&amp;nbsp;" style="text;html=1;strokeColor=none;fillColor=none;align=center;verticalAlign=middle;whiteSpace=wrap;rounded=0;" vertex="1" parent="1">
                    <mxGeometry x="830" y="260" width="200" height="30" as="geometry"/>
                </mxCell>
                <mxCell id="58" value="&lt;b&gt;6.Sustainability&lt;br&gt;&lt;/b&gt;Managed Services&amp;nbsp;" style="text;html=1;strokeColor=none;fillColor=none;align=center;verticalAlign=middle;whiteSpace=wrap;rounded=0;" vertex="1" parent="1">
                    <mxGeometry x="840" y="327.93" width="200" height="30" as="geometry"/>
                </mxCell>
            </root>
        </mxGraphModel>
    </diagram>
</mxfile>